<svg xmlns="http://www.w3.org/2000/svg" width="81" height="80" viewBox="0 0 81 80" fill="none">
    <path d="M40.5 70C39.5556 70 38.7645 69.68 38.1267 69.04C37.4889 68.4 37.1689 67.6089 37.1667 66.6667V43.3333H13.8333C12.8889 43.3333 12.0978 43.0133 11.46 42.3733C10.8222 41.7333 10.5022 40.9422 10.5 40C10.4978 39.0578 10.8178 38.2667 11.46 37.6267C12.1022 36.9867 12.8933 36.6667 13.8333 36.6667H37.1667V13.3333C37.1667 12.3889 37.4867 11.5978 38.1267 10.96C38.7667 10.3222 39.5578 10.0022 40.5 10C41.4422 9.99779 42.2345 10.3178 42.8767 10.96C43.5189 11.6022 43.8378 12.3933 43.8333 13.3333V36.6667H67.1667C68.1111 36.6667 68.9033 36.9867 69.5433 37.6267C70.1833 38.2667 70.5022 39.0578 70.5 40C70.4978 40.9422 70.1778 41.7345 69.54 42.3767C68.9022 43.0189 68.1111 43.3378 67.1667 43.3333H43.8333V66.6667C43.8333 67.6111 43.5133 68.4033 42.8733 69.0433C42.2333 69.6833 41.4422 70.0022 40.5 70Z" fill="white"/>
</svg>