<svg xmlns="http://www.w3.org/2000/svg" width="20" height="21" viewBox="0 0 20 21" fill="none">
    <path d="M10.0002 12.5417L16.1252 6.41667C16.3336 6.20833 16.5766 6.1075 16.8544 6.11417C17.1322 6.12083 17.3752 6.22861 17.5836 6.4375C17.7919 6.64639 17.8961 6.88944 17.8961 7.16667C17.8961 7.44389 17.7919 7.68694 17.5836 7.89583L11.1877 14.3125C11.0211 14.4792 10.8336 14.6042 10.6252 14.6875C10.4169 14.7708 10.2086 14.8125 10.0002 14.8125C9.7919 14.8125 9.58357 14.7708 9.37524 14.6875C9.1669 14.6042 8.9794 14.4792 8.81274 14.3125L2.39607 7.89583C2.18774 7.6875 2.08691 7.44083 2.09357 7.15583C2.10024 6.87083 2.20802 6.62444 2.41691 6.41667C2.62579 6.20889 2.86885 6.10472 3.14607 6.10417C3.42329 6.10361 3.66635 6.20778 3.87524 6.41667L10.0002 12.5417Z" fill="white"/>
</svg>