<svg xmlns="http://www.w3.org/2000/svg" width="33" height="32" viewBox="0 0 33 32" fill="none">
    <path d="M6.84533 10.4286H24.1787V7.95238H6.84533V10.4286ZM6.84533 27.7619C6.16438 27.7619 5.58165 27.5196 5.09714 27.0351C4.61263 26.5506 4.36997 25.9675 4.36914 25.2857V7.95238C4.36914 7.27143 4.61181 6.6887 5.09714 6.20419C5.58247 5.71969 6.1652 5.47702 6.84533 5.47619H8.08343V4.2381C8.08343 3.88731 8.20228 3.59346 8.44 3.35658C8.67771 3.11969 8.97155 3.00083 9.32152 3C9.67149 2.99918 9.96574 3.11804 10.2043 3.35658C10.4428 3.59512 10.5613 3.88896 10.5596 4.2381V5.47619H20.4644V4.2381C20.4644 3.88731 20.5832 3.59346 20.8209 3.35658C21.0587 3.11969 21.3525 3.00083 21.7025 3C22.0524 2.99918 22.3467 3.11804 22.5852 3.35658C22.8238 3.59512 22.9422 3.88896 22.9406 4.2381V5.47619H24.1787C24.8596 5.47619 25.4428 5.71886 25.9281 6.20419C26.4134 6.68953 26.6557 7.27226 26.6548 7.95238V13.7405C26.6548 14.0913 26.536 14.3855 26.2983 14.6232C26.0606 14.861 25.7667 14.9794 25.4168 14.9786C25.0668 14.9777 24.7729 14.8589 24.5352 14.622C24.2975 14.3851 24.1787 14.0913 24.1787 13.7405V12.9048H6.84533V25.2857H14.0263C14.3771 25.2857 14.6713 25.4046 14.909 25.6423C15.1468 25.88 15.2652 26.1738 15.2644 26.5238C15.2636 26.8738 15.1447 27.168 14.9078 27.4066C14.6709 27.6451 14.3771 27.7636 14.0263 27.7619H6.84533ZM22.9406 29C21.2279 29 19.7682 28.3962 18.5614 27.1887C17.3547 25.9811 16.7509 24.5214 16.7501 22.8095C16.7493 21.0977 17.353 19.6379 18.5614 18.4304C19.7698 17.2228 21.2295 16.619 22.9406 16.619C24.6516 16.619 26.1117 17.2228 27.3209 18.4304C28.5302 19.6379 29.1335 21.0977 29.131 22.8095C29.1286 24.5214 28.5248 25.9815 27.3197 27.1899C26.1146 28.3983 24.6549 29.0016 22.9406 29ZM23.5596 22.5619V19.7143C23.5596 19.5492 23.4977 19.4048 23.3739 19.281C23.2501 19.1571 23.1056 19.0952 22.9406 19.0952C22.7755 19.0952 22.631 19.1571 22.5072 19.281C22.3834 19.4048 22.3215 19.5492 22.3215 19.7143V22.531C22.3215 22.696 22.3525 22.8562 22.4144 23.0113C22.4763 23.1665 22.5691 23.3056 22.6929 23.4286L24.581 25.3167C24.7049 25.4405 24.8493 25.5024 25.0144 25.5024C25.1795 25.5024 25.3239 25.4405 25.4477 25.3167C25.5715 25.1929 25.6334 25.0484 25.6334 24.8833C25.6334 24.7183 25.5715 24.5738 25.4477 24.45L23.5596 22.5619Z" fill="white"/>
</svg>