<svg xmlns="http://www.w3.org/2000/svg" width="17" height="17" viewBox="0 0 17 17" fill="none">
    <path d="M6.86646 10.6L12.5165 4.95C12.6498 4.81667 12.8054 4.75 12.9831 4.75C13.1609 4.75 13.3165 4.81667 13.4498 4.95C13.5831 5.08333 13.6498 5.24178 13.6498 5.42533C13.6498 5.60889 13.5831 5.76711 13.4498 5.9L7.33313 12.0333C7.19979 12.1667 7.04424 12.2333 6.86646 12.2333C6.68868 12.2333 6.53313 12.1667 6.39979 12.0333L3.53313 9.16667C3.39979 9.03333 3.33579 8.87511 3.34113 8.692C3.34646 8.50889 3.41602 8.35044 3.54979 8.21667C3.68357 8.08289 3.84202 8.01622 4.02513 8.01667C4.20824 8.01711 4.36646 8.08378 4.49979 8.21667L6.86646 10.6Z" fill="#121213"/>
</svg>