<svg xmlns="http://www.w3.org/2000/svg" width="32" height="32" viewBox="0 0 32 32" fill="none">
    <path d="M16.0001 17.8667L9.46673 24.4C9.22229 24.6444 8.91118 24.7667 8.5334 24.7667C8.15562 24.7667 7.84451 24.6444 7.60006 24.4C7.35562 24.1556 7.2334 23.8444 7.2334 23.4667C7.2334 23.0889 7.35562 22.7778 7.60006 22.5333L14.1334 16L7.60006 9.46667C7.35562 9.22223 7.2334 8.91112 7.2334 8.53334C7.2334 8.15556 7.35562 7.84445 7.60006 7.6C7.84451 7.35556 8.15562 7.23334 8.5334 7.23334C8.91118 7.23334 9.22229 7.35556 9.46673 7.6L16.0001 14.1333L22.5334 7.6C22.7778 7.35556 23.089 7.23334 23.4667 7.23334C23.8445 7.23334 24.1556 7.35556 24.4001 7.6C24.6445 7.84445 24.7667 8.15556 24.7667 8.53334C24.7667 8.91112 24.6445 9.22223 24.4001 9.46667L17.8667 16L24.4001 22.5333C24.6445 22.7778 24.7667 23.0889 24.7667 23.4667C24.7667 23.8444 24.6445 24.1556 24.4001 24.4C24.1556 24.6444 23.8445 24.7667 23.4667 24.7667C23.089 24.7667 22.7778 24.6444 22.5334 24.4L16.0001 17.8667Z" fill="white"/>
</svg>