<svg xmlns="http://www.w3.org/2000/svg" width="20" height="20" viewBox="0 0 20 20" fill="none">
    <path d="M9.16667 15C8.93056 15 8.73278 14.92 8.57334 14.76C8.41389 14.6 8.33389 14.4022 8.33334 14.1667C8.33278 13.9311 8.41278 13.7333 8.57334 13.5733C8.73389 13.4133 8.93167 13.3333 9.16667 13.3333H10.8333C11.0694 13.3333 11.2675 13.4133 11.4275 13.5733C11.5875 13.7333 11.6672 13.9311 11.6667 14.1667C11.6661 14.4022 11.5861 14.6003 11.4267 14.7608C11.2672 14.9214 11.0694 15.0011 10.8333 15H9.16667ZM5.83334 10.8333C5.59723 10.8333 5.39945 10.7533 5.24 10.5933C5.08056 10.4333 5.00056 10.2356 5 10C4.99945 9.76444 5.07945 9.56667 5.24 9.40667C5.40056 9.24667 5.59834 9.16667 5.83334 9.16667H14.1667C14.4028 9.16667 14.6008 9.24667 14.7608 9.40667C14.9208 9.56667 15.0006 9.76444 15 10C14.9994 10.2356 14.9194 10.4336 14.76 10.5942C14.6006 10.7547 14.4028 10.8344 14.1667 10.8333H5.83334ZM3.33334 6.66667C3.09723 6.66667 2.89945 6.58667 2.74 6.42667C2.58056 6.26667 2.50056 6.06889 2.5 5.83333C2.49945 5.59778 2.57945 5.4 2.74 5.24C2.90056 5.08 3.09834 5 3.33334 5H16.6667C16.9028 5 17.1008 5.08 17.2608 5.24C17.4208 5.4 17.5006 5.59778 17.5 5.83333C17.4994 6.06889 17.4194 6.26694 17.26 6.4275C17.1006 6.58806 16.9028 6.66778 16.6667 6.66667H3.33334Z" fill="#A2A2A2"/>
</svg>