<svg xmlns="http://www.w3.org/2000/svg" width="33" height="32" viewBox="0 0 33 32" fill="currentColor">
    <path d="M5.45825 25.3334V13.3334C5.45825 12.9111 5.55292 12.5111 5.74225 12.1334C5.93159 11.7556 6.19247 11.4445 6.52492 11.2L14.5249 5.20002C14.9916 4.84446 15.5249 4.66669 16.1249 4.66669C16.7249 4.66669 17.2583 4.84446 17.7249 5.20002L25.7249 11.2C26.0583 11.4445 26.3196 11.7556 26.5089 12.1334C26.6983 12.5111 26.7925 12.9111 26.7916 13.3334V25.3334C26.7916 26.0667 26.5303 26.6947 26.0076 27.2174C25.4849 27.74 24.8574 28.0009 24.1249 28H20.1249C19.7471 28 19.4307 27.872 19.1756 27.616C18.9205 27.36 18.7925 27.0436 18.7916 26.6667V20C18.7916 19.6222 18.6636 19.3058 18.4076 19.0507C18.1516 18.7956 17.8351 18.6676 17.4583 18.6667H14.7916C14.4138 18.6667 14.0974 18.7947 13.8423 19.0507C13.5871 19.3067 13.4591 19.6231 13.4583 20V26.6667C13.4583 27.0445 13.3303 27.3614 13.0743 27.6174C12.8183 27.8734 12.5018 28.0009 12.1249 28H8.12492C7.39159 28 6.76403 27.7391 6.24225 27.2174C5.72047 26.6956 5.45914 26.0676 5.45825 25.3334Z" fill="currentColor"/>
</svg>