<svg width="40" height="40" viewBox="0 0 40 40" fill="currentColor" xmlns="http://www.w3.org/2000/svg">
<g id="material-symbols:person-rounded">
<path id="Vector" d="M20 20C18.1667 20 16.5972 19.3472 15.2917 18.0416C13.9861 16.7361 13.3333 15.1666 13.3333 13.3333C13.3333 11.5 13.9861 9.93052 15.2917 8.62496C16.5972 7.3194 18.1667 6.66663 20 6.66663C21.8333 6.66663 23.4028 7.3194 24.7083 8.62496C26.0139 9.93052 26.6667 11.5 26.6667 13.3333C26.6667 15.1666 26.0139 16.7361 24.7083 18.0416C23.4028 19.3472 21.8333 20 20 20ZM6.66667 30V28.6666C6.66667 27.7222 6.91001 26.8544 7.39667 26.0633C7.88334 25.2722 8.52889 24.6677 9.33334 24.25C11.0556 23.3888 12.8056 22.7433 14.5833 22.3133C16.3611 21.8833 18.1667 21.6677 20 21.6666C21.8333 21.6655 23.6389 21.8811 25.4167 22.3133C27.1944 22.7455 28.9444 23.3911 30.6667 24.25C31.4722 24.6666 32.1183 25.2711 32.605 26.0633C33.0917 26.8555 33.3344 27.7233 33.3333 28.6666V30C33.3333 30.9166 33.0072 31.7016 32.355 32.355C31.7028 33.0083 30.9178 33.3344 30 33.3333H10C9.08334 33.3333 8.29889 33.0072 7.64667 32.355C6.99445 31.7027 6.66778 30.9177 6.66667 30Z" fill="currentColor"/>
</g>
</svg>
