<svg width="40" height="40" viewBox="0 0 40 40" fill="currentColor" xmlns="http://www.w3.org/2000/svg">
<g id="material-symbols:personal-places-rounded">
<path id="Vector" d="M10 33.3333V9.99996C10 9.08329 10.3267 8.29885 10.98 7.64663C11.6333 6.9944 12.4178 6.66774 13.3333 6.66663H25.75C26.3056 6.66663 26.8194 6.79163 27.2917 7.04163C27.7639 7.29163 28.1528 7.63885 28.4583 8.08329L32 13.0833C32.3889 13.6666 32.5833 14.3055 32.5833 15C32.5833 15.6944 32.3889 16.3333 32 16.9166L28.4583 21.9166C28.1528 22.3611 27.7639 22.7083 27.2917 22.9583C26.8194 23.2083 26.3056 23.3333 25.75 23.3333H13.3333V33.3333C13.3333 33.8055 13.1733 34.2016 12.8533 34.5216C12.5333 34.8416 12.1378 35.0011 11.6667 35C11.1956 34.9988 10.8 34.8388 10.48 34.52C10.16 34.2011 10 33.8055 10 33.3333Z" fill="currentColor"/>
</g>
</svg>
