<svg xmlns="http://www.w3.org/2000/svg" width="33" height="32" viewBox="0 0 33 32" fill="currentColor">
    <path d="M13.0417 21.3333C10.6194 21.3333 8.56967 20.4942 6.89233 18.816C5.215 17.1378 4.37589 15.088 4.375 12.6667C4.37411 10.2453 5.21322 8.19556 6.89233 6.51733C8.57145 4.83911 10.6212 4 13.0417 4C15.4621 4 17.5123 4.83911 19.1923 6.51733C20.8723 8.19556 21.711 10.2453 21.7083 12.6667C21.7083 13.6444 21.5528 14.5667 21.2417 15.4333C20.9306 16.3 20.5083 17.0667 19.975 17.7333L27.4417 25.2C27.6861 25.4444 27.8083 25.7556 27.8083 26.1333C27.8083 26.5111 27.6861 26.8222 27.4417 27.0667C27.1972 27.3111 26.8861 27.4333 26.5083 27.4333C26.1306 27.4333 25.8194 27.3111 25.575 27.0667L18.1083 19.6C17.4417 20.1333 16.675 20.5556 15.8083 20.8667C14.9417 21.1778 14.0194 21.3333 13.0417 21.3333ZM13.0417 18.6667C14.7083 18.6667 16.1252 18.0836 17.2923 16.9173C18.4594 15.7511 19.0426 14.3342 19.0417 12.6667C19.0408 10.9991 18.4577 9.58267 17.2923 8.41733C16.127 7.252 14.7101 6.66844 13.0417 6.66667C11.3732 6.66489 9.95678 7.24844 8.79233 8.41733C7.62789 9.58622 7.04433 11.0027 7.04167 12.6667C7.039 14.3307 7.62256 15.7476 8.79233 16.9173C9.96211 18.0871 11.3786 18.6702 13.0417 18.6667Z" fill="currentColor"/>
</svg>