<svg xmlns="http://www.w3.org/2000/svg" width="33" height="32" viewBox="0 0 33 32" fill="currentColor">
    <path d="M5.95841 6.66669C5.25117 6.66669 4.57289 6.94764 4.0728 7.44774C3.5727 7.94783 3.29175 8.62611 3.29175 9.33335V12.6667C3.29175 13.0203 3.43222 13.3594 3.68227 13.6095C3.93232 13.8595 4.27146 14 4.62508 14C5.15551 14 5.66422 14.2107 6.03929 14.5858C6.41437 14.9609 6.62508 15.4696 6.62508 16C6.62508 16.5305 6.41437 17.0392 6.03929 17.4142C5.66422 17.7893 5.15551 18 4.62508 18C4.27146 18 3.93232 18.1405 3.68227 18.3905C3.43222 18.6406 3.29175 18.9797 3.29175 19.3334V22.6667C3.29175 23.3739 3.5727 24.0522 4.0728 24.5523C4.57289 25.0524 5.25117 25.3334 5.95841 25.3334H27.2917C27.999 25.3334 28.6773 25.0524 29.1774 24.5523C29.6775 24.0522 29.9584 23.3739 29.9584 22.6667V19.3334C29.9584 18.9797 29.8179 18.6406 29.5679 18.3905C29.3178 18.1405 28.9787 18 28.6251 18C28.0946 18 27.5859 17.7893 27.2109 17.4142C26.8358 17.0392 26.6251 16.5305 26.6251 16C26.6251 15.4696 26.8358 14.9609 27.2109 14.5858C27.5859 14.2107 28.0946 14 28.6251 14C28.9787 14 29.3178 13.8595 29.5679 13.6095C29.8179 13.3594 29.9584 13.0203 29.9584 12.6667V9.33335C29.9584 8.62611 29.6775 7.94783 29.1774 7.44774C28.6773 6.94764 27.999 6.66669 27.2917 6.66669H5.95841Z" fill="currentColor"/>
</svg>