<svg xmlns="http://www.w3.org/2000/svg" width="24" height="24" viewBox="0 0 24 24" fill="none">
    <path d="M3.55 12L10.9 19.35C11.15 19.6 11.271 19.8916 11.263 20.225C11.255 20.5583 11.1257 20.85 10.875 21.1C10.6243 21.35 10.3327 21.475 10 21.475C9.66733 21.475 9.37566 21.35 9.125 21.1L1.425 13.425C1.225 13.225 1.075 13 0.974997 12.75C0.874997 12.5 0.824997 12.25 0.824997 12C0.824997 11.75 0.874997 11.5 0.974997 11.25C1.075 11 1.225 10.775 1.425 10.575L9.125 2.87497C9.375 2.62497 9.671 2.50397 10.013 2.51197C10.355 2.51997 10.6507 2.6493 10.9 2.89997C11.1493 3.15064 11.2743 3.4423 11.275 3.77497C11.2757 4.10764 11.1507 4.3993 10.9 4.64997L3.55 12Z" fill="white"/>
</svg>