<svg xmlns="http://www.w3.org/2000/svg" width="24" height="25" viewBox="0 0 24 25" fill="none">
    <path d="M21.8055 10.854H21V10.8125H12V14.8125H17.6515C16.827 17.141 14.6115 18.8125 12 18.8125C8.6865 18.8125 6 16.126 6 12.8125C6 9.499 8.6865 6.8125 12 6.8125C13.5295 6.8125 14.921 7.3895 15.9805 8.332L18.809 5.5035C17.023 3.839 14.634 2.8125 12 2.8125C6.4775 2.8125 2 7.29 2 12.8125C2 18.335 6.4775 22.8125 12 22.8125C17.5225 22.8125 22 18.335 22 12.8125C22 12.142 21.931 11.4875 21.8055 10.854Z" fill="#FFC107"/>
    <path d="M3.153 8.158L6.4385 10.5675C7.3275 8.3665 9.4805 6.8125 12 6.8125C13.5295 6.8125 14.921 7.3895 15.9805 8.332L18.809 5.5035C17.023 3.839 14.634 2.8125 12 2.8125C8.159 2.8125 4.828 4.981 3.153 8.158Z" fill="#FF3D00"/>
    <path d="M12 22.8125C14.583 22.8125 16.93 21.824 18.7045 20.2165L15.6095 17.5975C14.6055 18.358 13.3575 18.8125 12 18.8125C9.399 18.8125 7.1905 17.154 6.3585 14.8395L3.0975 17.352C4.7525 20.5905 8.1135 22.8125 12 22.8125Z" fill="#4CAF50"/>
    <path d="M21.8055 10.854H21V10.8125H12V14.8125H17.6515C17.2555 15.931 16.536 16.8955 15.608 17.598L15.6095 17.597L18.7045 20.216C18.4855 20.415 22 17.8125 22 12.8125C22 12.142 21.931 11.4875 21.8055 10.854Z" fill="#1976D2"/>
</svg>