<svg width="40" height="40" viewBox="0 0 40 40" fill="currentColor" xmlns="http://www.w3.org/2000/svg">
<g id="material-symbols:music-note-rounded">
<path id="Vector" d="M16.6667 35C14.8333 35 13.2639 34.3472 11.9583 33.0417C10.6528 31.7361 10 30.1667 10 28.3333C10 26.5 10.6528 24.9306 11.9583 23.625C13.2639 22.3194 14.8333 21.6667 16.6667 21.6667C17.3056 21.6667 17.8961 21.7433 18.4383 21.8967C18.9806 22.05 19.5011 22.2789 20 22.5833V6.66667C20 6.19444 20.16 5.79889 20.48 5.48C20.8 5.16111 21.1956 5.00111 21.6667 5H28.3333C28.8056 5 29.2017 5.16 29.5217 5.48C29.8417 5.8 30.0011 6.19556 30 6.66667V10C30 10.4722 29.84 10.8683 29.52 11.1883C29.2 11.5083 28.8044 11.6678 28.3333 11.6667H23.3333V28.3333C23.3333 30.1667 22.6806 31.7361 21.375 33.0417C20.0694 34.3472 18.5 35 16.6667 35Z" fill="currentColor"/>
</g>
</svg>
