<svg width="165" height="23" viewBox="0 0 165 23" fill="none" xmlns="http://www.w3.org/2000/svg">
<path d="M145.078 22.8125V0.1875H149.766V10.2188H150.078L158.297 0.1875H163.953L155.516 10.3125L164.047 22.8125H158.422L152.141 13.4688L149.766 16.3438V22.8125H145.078Z" fill="#CCFC55"/>
<path d="M140.266 0.1875V22.8125H136.203L126.266 8.4375H126.078V22.8125H121.391V0.1875H125.516L135.391 14.5625H135.609V0.1875H140.266Z" fill="#CCFC55"/>
<path d="M116.578 0.1875V22.8125H111.891V0.1875H116.578Z" fill="#CCFC55"/>
<path d="M93.4219 22.8125V0.1875H98.1094V18.9375H107.859V22.8125H93.4219Z" fill="#CCFC55"/>
<path d="M77.9531 22.8125H69.9844V0.1875H78.0469C84.8594 0.1875 89.0156 4.4375 89.0156 11.4688C89.0156 18.5625 84.8594 22.8125 77.9531 22.8125ZM74.6719 18.7812H77.7656C82.0781 18.7812 84.3281 16.5312 84.3281 11.4688C84.3281 6.4375 82.0781 4.21875 77.7969 4.21875H74.6719V18.7812Z" fill="#CCFC55"/>
<path d="M65.1719 0.1875V22.8125H61.1094L51.1719 8.4375H50.9844V22.8125H46.2969V0.1875H50.4219L60.2969 14.5625H60.5156V0.1875H65.1719Z" fill="#CCFC55"/>
<path d="M26.1094 22.8125H21.0469L28.8906 0.1875H34.9219L42.7344 22.8125H37.7031L36.0156 17.5938H27.8281L26.1094 22.8125ZM29.0156 13.9375H34.8281L31.9844 5.28125H31.8281L29.0156 13.9375Z" fill="#CCFC55"/>
<path d="M0.953125 22.8125V0.1875H9.95312C14.9531 0.1875 17.4531 2.59375 17.4531 6C17.4531 8.65625 15.7344 10.3125 13.3906 10.8438V11.0625C15.9531 11.1875 18.3594 13.2188 18.3594 16.5625C18.3594 20.1562 15.6719 22.8125 10.5469 22.8125H0.953125ZM9.60938 18.9375C12.3281 18.9375 13.4844 17.8125 13.4844 16.125C13.4844 14.2188 12.0469 12.875 9.73438 12.875H5.64062V18.9375H9.60938ZM9.26562 9.65625C11.2344 9.65625 12.7031 8.5625 12.7031 6.75C12.7031 5.125 11.5156 4 9.35938 4H5.64062V9.65625H9.26562Z" fill="#CCFC55"/>
</svg>
